<svg xmlns="http://www.w3.org/2000/svg" viewBox="0 200 200 200">
	<style>.st0{fill:#414042}</style>
	<path d="M134.8 250.6c-13.2 0-24.3-3.2-32.1-9.4-7.8 6.1-18.9 9.4-32.1 9.4-6.4 0-11.9-.7-15.6-1.4-.7 6.8-1.8 23.1 1.5 41 5.7 30.9 21.3 52.1 46.2 62.8 24.9-10.7 40.4-31.8 46.2-62.6 3.3-17.9 2.3-34.3 1.6-41.1-3.8.5-9.3 1.3-15.7 1.3z" class="st0"/>
	<path d="M153.5 244.7s-33.1 8.3-50.8-8.4c-17.7 16.7-50.8 8.4-50.8 8.4s-14.1 85.7 50.8 112.4c64.9-26.7 50.8-112.4 50.8-112.4zm-3.6 45.9c-5.9 31.3-21.7 52.7-47 63.5l-.2.1-.2-.1c-25.4-10.9-41.2-32.3-47.1-63.7-3.4-18.6-2.2-35.5-1.5-41.9l.1-.6.6.1c3.6.7 9.3 1.4 16 1.4 13.2 0 24.2-3.2 31.8-9.4l.3-.3.3.3c7.7 6.1 18.7 9.4 31.8 9.4 6.6 0 12.3-.8 16-1.4l.6-.1.1.6c.6 6.4 1.9 23.4-1.6 42.1z" class="st0"/>
</svg>