<?xml version="1.0" encoding="utf-8"?>
<!-- Generator: Adobe Illustrator 19.0.0, SVG Export Plug-In . SVG Version: 6.00 Build 0)  -->
<svg version="1.1" id="Layer_1" xmlns="http://www.w3.org/2000/svg" xmlns:xlink="http://www.w3.org/1999/xlink" x="0px" y="0px"
	 viewBox="0 0 595.3 595.3" style="enable-background:new 0 0 595.3 595.3;" xml:space="preserve">
<style type="text/css">
	.st0{fill:#414042;}
</style>
<g>
	<g>
		<path class="st0" d="M102.7,89.7c-12.7,13.5-37.2,21.3-45.1,23.5c0.8,11.9,6.5,65.9,45.1,87c38.6-21.1,44.3-75.1,45.1-87
			C139.8,111,115.4,103.2,102.7,89.7z"/>
		<path class="st0" d="M102.7,83.8c-12.8,17.7-49.1,26.6-49.1,26.6s1,69.8,49.1,94.2c48.1-24.4,49.1-94.2,49.1-94.2
			S115.4,101.5,102.7,83.8z M102.9,201.4l-0.3,0.1l-0.3-0.1c-39.9-21.5-45.3-77.5-46-88.5l0-0.5l0.4-0.1c7.5-2.1,32.8-9.9,45.5-23.8
			l0.4-0.5l0.4,0.5c12.6,13.8,38,21.7,45.5,23.8l0.4,0.1l0,0.5C148.3,123.8,142.8,179.9,102.9,201.4z"/>
	</g>
	<g>
		<path class="st0" d="M300.9,89.9c-16.6,5.1-35.5,18.2-42.9,27.4c0.5,25.1,14,66.6,42.9,80.9c28.8-14.4,42.4-55.9,42.9-80.9
			C336.4,108.1,317.6,95,300.9,89.9z"/>
		<path class="st0" d="M300.9,85.9c-18.4,5.3-39.4,20.2-46.7,30.1c0,28.5,16.1,72.5,46.7,86.4c30.6-13.9,46.7-57.9,46.7-86.4
			C340.4,106.1,319.4,91.2,300.9,85.9z M301.2,199.3l-0.3,0.1l-0.3-0.1c-29.5-14.5-43.4-56.9-43.8-82.3l0-0.2l0.1-0.2
			c7.4-9.3,26.7-22.8,43.7-28l0.2-0.1l0.2,0.1c17,5.1,36.3,18.6,43.7,28l0.1,0.2l0,0.2C344.5,142.5,330.7,184.8,301.2,199.3z"/>
	</g>
	<g>
		<path class="st0" d="M499.2,198.3c6.2-2.8,25.9-12.8,36.3-31.4V89.6h-72.6v77.3C473.3,185.6,493,195.6,499.2,198.3z"/>
		<path class="st0" d="M458.8,85.5V168c11.7,22,34.8,32.6,40.4,34.9c5.6-2.3,28.7-12.9,40.4-34.9V85.5H458.8z M536.7,167.2l-0.1,0.1
			c-10.7,19.4-31.2,29.6-37.2,32.2l-0.2,0.1l-0.2-0.1c-6-2.7-26.5-12.8-37.2-32.2l-0.1-0.1V88.4h75V167.2z"/>
	</g>
	<g>
		<path class="st0" d="M300.9,394.3c-11,0-22.6,7-32.8,13.3c-6.4,3.9-11.9,7.2-16.6,8.5c0.8,16.7,7.4,57.6,49.4,87.1
			c42-29.5,48.6-70.4,49.4-87.1c-4.7-1.3-10.2-4.6-16.6-8.5C323.5,401.4,311.9,394.3,300.9,394.3z"/>
		<path class="st0" d="M300.9,390.5c-20.7,0-42.5,22.3-53.3,22.3c0.3,26.9,12,67.1,53.3,95c41.3-27.9,53-68.1,53.3-95
			C343.4,412.8,321.7,390.5,300.9,390.5z M301.3,504.4l-0.3,0.2l-0.3-0.2c-43.1-30.1-49.5-72.1-50.2-88.7l0-0.5l0.5-0.1
			c4.7-1.1,10.3-4.5,16.7-8.5c10.4-6.3,22.1-13.4,33.4-13.4c11.3,0,23,7.1,33.4,13.4c6.5,3.9,12.1,7.3,16.7,8.5l0.5,0.1l0,0.5
			C350.8,432.3,344.4,474.3,301.3,504.4z"/>
	</g>
	<g>
		<path class="st0" d="M134.8,250.6c-13.2,0-24.3-3.2-32.1-9.4c-7.8,6.1-18.9,9.4-32.1,9.4c-6.4,0-11.9-0.7-15.6-1.4
			c-0.7,6.8-1.8,23.1,1.5,41c5.7,30.9,21.3,52.1,46.2,62.8c24.9-10.7,40.4-31.8,46.2-62.6c3.3-17.9,2.3-34.3,1.6-41.1
			C146.7,249.8,141.2,250.6,134.8,250.6z"/>
		<path class="st0" d="M153.5,244.7c0,0-33.1,8.3-50.8-8.4c-17.7,16.7-50.8,8.4-50.8,8.4s-14.1,85.7,50.8,112.4
			C167.6,330.4,153.5,244.7,153.5,244.7z M149.9,290.6c-5.9,31.3-21.7,52.7-47,63.5l-0.2,0.1l-0.2-0.1
			c-25.4-10.9-41.2-32.3-47.1-63.7c-3.4-18.6-2.2-35.5-1.5-41.9l0.1-0.6l0.6,0.1c3.6,0.7,9.3,1.4,16,1.4c13.2,0,24.2-3.2,31.8-9.4
			l0.3-0.3l0.3,0.3c7.7,6.1,18.7,9.4,31.8,9.4c6.6,0,12.3-0.8,16-1.4l0.6-0.1l0.1,0.6C152.1,254.9,153.4,271.9,149.9,290.6z"/>
	</g>
	<g>
		<polygon class="st0" points="261.4,247.8 264.8,328.5 300.9,352.2 337.1,328.5 340.5,247.8 300.9,240.5 		"/>
		<path class="st0" d="M300.9,236.6l-43.5,8l3.6,86l39.9,26.1l39.9-26.1l3.6-86L300.9,236.6z M338.2,329.1l-37.3,24.4l-37.3-24.4
			l0-0.3l-3.5-82l40.7-7.5l0.1,0l40.6,7.4l0,0.5L338.2,329.1z"/>
	</g>
	<g>
		<path class="st0" d="M457.5,255.4v51.5c1,3.4,10,30,41.7,44.1c31.6-14.1,40.7-40.7,41.7-44.1v-51.5c-8.2-0.3-27.4-2.2-41.7-12.4
			C484.9,253.2,465.7,255.1,457.5,255.4z"/>
		<path class="st0" d="M499.2,238.2c-17.5,14.2-45.5,13.4-45.5,13.4v55.8c0,0,8.2,31.9,45.5,47.7c37.3-15.8,45.5-47.7,45.5-47.7
			v-55.8C544.7,251.6,516.7,252.4,499.2,238.2z M542,307.1c-0.9,3.1-10,30.6-42.6,45l-0.2,0.1l-0.2-0.1
			c-32.7-14.4-41.7-41.9-42.6-45l0-0.2v-52.7l0.6,0c7.8-0.3,27.5-2,42-12.4l0.3-0.2l0.3,0.2c14.4,10.4,34.2,12.2,42,12.4l0.6,0
			L542,307.1z"/>
	</g>
	<g>
		<path class="st0" d="M525.8,399.7c-5.9-5.6-15.8-9-26.6-9s-20.7,3.4-26.6,9l-1.1,1.1h-5.7v92.9c4.4,2.6,18.7,10.5,33.3,14
			c14.7-3.5,28.9-11.3,33.3-14v-92.9h-5.7L525.8,399.7z"/>
		<path class="st0" d="M528.4,396.9c-6.4-6.1-17.1-10.1-29.2-10.1c-12.1,0-22.8,4-29.2,10.1h-7.9v98.9c0,0,18,11.4,37.1,15.7
			c19.1-4.3,37.1-15.7,37.1-15.7v-98.9H528.4z M533.7,494.3l-0.3,0.2c-4.1,2.5-18.9,10.7-34.1,14.3l-0.1,0l-0.1,0
			c-15.2-3.6-29.9-11.8-34.1-14.3l-0.3-0.2v-94.7h6.3l0.8-0.7c6.1-5.8,16.3-9.3,27.4-9.3c11,0,21.2,3.5,27.4,9.3l0.8,0.7h6.3V494.3z
			"/>
	</g>
	<g>
		<path class="st0" d="M140.9,396.7H64.5c-14.4,65.5,17.6,93.6,38.2,104.5C123.3,490.3,155.2,462.2,140.9,396.7z"/>
		<path class="st0" d="M143.9,392.9h-41.2H61.4c-15.1,63.7,10.8,97.3,41.2,112.6C133.1,490.2,159,456.6,143.9,392.9z M102.9,502.4
			l-0.3,0.1l-0.3-0.1c-20.9-11-53.8-39.5-39-106.4l0.1-0.4h78.2l0.1,0.4C156.7,462.9,123.8,491.3,102.9,502.4z"/>
	</g>
</g>
</svg>
