<!--
Author: Nick G.
Made For: Our Lady's Legion
-->
<svg xmlns="http://www.w3.org/2000/svg" viewBox="0 0 100 100">
	<style>
		.path0 {
			stroke: #000;
			stroke-width: 5;
			fill: none;
		}
		.path1 {
			stroke: none;
			fill: #000;
		}
	</style>
	<!-- Sheild: 5,5 to 95,95 (+5 stroke) -->
	<path class="path0" d="M 5,20 Q 25,20 50,5 Q 75,20 95,20 Q 95,70 50,95 Q 5,70 5,20z"/>
	<!-- Crosses: 18,18 to 82,82 (-3 translateY) -->
	<g transform="translate(0,-3)">
		<path class="path1" d="M 38,18 l 24,0 l 0,8 l -8,0 l 0,20 l 20,0 l 0,-8 l 8,0 l 0,24 l -8,0 l 0,-8 l -20,0 l 0,20 l 8,0 l 0,8 l -24,0 l 0,-8 l 8,0 l 0,-20 l -20,0 l 0,8 l -8,0 l 0,-24 l 8,0 l 0,8 l 20,0 l 0,-20 l -8,0 l 0,-8z"/>
		<path class="path1" d="M 30,22 l 4,0 l 0,8 l 8,0 l 0,4 l -8,0 l 0,8 l -4,0 l 0,-8 l -8,0 l 0,-4 l 8,0 l 0,-8z"/>
		<path class="path1" d="M 66,22 l 4,0 l 0,8 l 8,0 l 0,4 l -8,0 l 0,8 l -4,0 l 0,-8 l -8,0 l 0,-4 l 8,0 l 0,-8z"/>
		<path class="path1" d="M 66,58 l 4,0 l 0,8 l 8,0 l 0,4 l -8,0 l 0,8 l -4,0 l 0,-8 l -8,0 l 0,-4 l 8,0 l 0,-8z"/>
		<path class="path1" d="M 30,58 l 4,0 l 0,8 l 8,0 l 0,4 l -8,0 l 0,8 l -4,0 l 0,-8 l -8,0 l 0,-4 l 8,0 l 0,-8z"/>
	</g>
</svg>